<svg width="76" height="76" viewBox="0 0 76 76" fill="none" xmlns="http://www.w3.org/2000/svg">
<circle cx="38" cy="38" r="38" fill="#132740"/>
<path d="M27.4209 35.9574C30.3688 41.7508 35.1079 46.49 40.9115 49.4378L45.4152 44.9239C45.9782 44.3609 46.7868 44.1972 47.4931 44.4224C49.7859 45.1798 52.2527 45.5892 54.8013 45.5892C55.9375 45.5892 56.8485 46.5002 56.8485 47.6364V54.8013C56.8485 55.9375 55.9375 56.8485 54.8013 56.8485C35.5787 56.8485 20 41.2698 20 22.0471C20 20.911 20.9212 20 22.0471 20H29.2121C30.3483 20 31.2593 20.911 31.2593 22.0471C31.2593 24.5958 31.6687 27.0626 32.4261 29.3554C32.6513 30.0617 32.4875 30.8703 31.9246 31.4333L27.4209 35.9574V35.9574Z" fill="#F5F5F5"/>
</svg>
